<svg width="22" height="22" viewBox="0 0 22 22" fill="none" xmlns="http://www.w3.org/2000/svg">
<path d="M0.813877 2.64419H3.14697L6.47032 14.6624C6.56526 15.0151 6.89081 15.2593 7.25705 15.2593H17.4712C17.7968 15.2593 18.0816 15.0694 18.2172 14.7709L21.9339 6.22524C22.0425 5.96753 22.0153 5.68267 21.8661 5.45206C21.7169 5.22145 21.4592 5.08582 21.1878 5.08582H9.90215C9.45452 5.08582 9.08827 5.45206 9.08827 5.89969C9.08827 6.34733 9.45452 6.71357 9.90215 6.71357H19.94L16.9286 13.6315H7.86746L4.54416 1.61329C4.44922 1.2606 4.12367 1.01643 3.75743 1.01643H0.813877C0.366245 1.01643 0 1.38268 0 1.83031C0 2.27794 0.366245 2.64419 0.813877 2.64419Z" fill="white"/>
<path d="M6.48393 20.9836C7.50128 20.9836 8.32871 20.1561 8.32871 19.1388C8.32871 18.1214 7.50128 17.294 6.48393 17.294C5.46659 17.294 4.63916 18.1214 4.63916 19.1387C4.63916 20.1561 5.46659 20.9836 6.48393 20.9836Z" fill="white"/>
<path d="M18.0138 20.9836C18.0545 20.9836 18.1087 20.9836 18.1494 20.9836C18.6377 20.9429 19.0854 20.7258 19.4109 20.346C19.7365 19.9798 19.8857 19.505 19.8585 19.0031C19.7907 17.9993 18.909 17.2261 17.8917 17.294C16.8744 17.3618 16.1147 18.2571 16.1826 19.2608C16.2503 20.2239 17.0507 20.9836 18.0138 20.9836Z" fill="white"/>
</svg>
