<svg width="36" height="36" viewBox="0 0 36 36" fill="none" xmlns="http://www.w3.org/2000/svg">
<path d="M35.5078 18.0702C35.5078 20.5171 35.4586 22.971 35.5219 25.4179C35.6273 29.7491 32.9062 33.096 29.4398 34.5866C28.0476 35.1843 26.5851 35.5007 25.0734 35.5007C20.3414 35.5077 15.6023 35.571 10.8703 35.4796C7.30546 35.4093 4.37342 33.9187 2.27108 30.9796C1.16718 29.4327 0.639832 27.6749 0.639832 25.7694C0.639832 20.728 0.639832 15.6937 0.639832 10.6523C0.639832 6.53897 2.64374 3.66319 6.20155 1.79288C7.74842 0.984281 9.42889 0.63975 11.1797 0.632719C15.7711 0.632719 20.3695 0.604594 24.9609 0.646781C28.5258 0.674906 31.5 2.03897 33.6937 4.90772C34.9172 6.51084 35.5078 8.35303 35.5078 10.378C35.5078 12.9374 35.5078 15.5038 35.5078 18.0702ZM3.23436 18.0702C3.23436 20.6507 3.23436 23.2241 3.23436 25.8046C3.23436 26.9577 3.50155 28.0405 4.09921 29.0179C5.66717 31.5843 8.03671 32.8358 10.9758 32.8851C15.6937 32.9554 20.4187 32.9132 25.1437 32.8991C26.3039 32.8991 27.4289 32.6601 28.4765 32.1608C31.3312 30.7968 32.9273 28.6241 32.9133 25.3616C32.8851 20.3694 32.9062 15.3773 32.9062 10.3851C32.9062 8.97178 32.5055 7.67803 31.6687 6.53897C30.0515 4.35225 27.8156 3.27647 25.1437 3.24834C20.4328 3.19209 15.7219 3.22725 11.0109 3.23428C10.0055 3.23428 9.03514 3.43819 8.09296 3.78975C5.50546 4.75303 3.10077 7.19288 3.21327 10.7858C3.29764 13.2187 3.23436 15.6444 3.23436 18.0702Z" fill="white"/>
<path d="M18.1125 25.5234C13.5773 25.5234 9.92104 21.9094 9.91401 17.4094C9.90698 12.9797 13.5914 9.35157 18.0984 9.35157C22.6195 9.34454 26.2898 12.9656 26.2968 17.4305C26.2968 21.8883 22.6335 25.5164 18.1125 25.5234ZM18.1125 22.9219C21.1992 22.9219 23.7023 20.4539 23.6953 17.4164C23.6882 14.407 21.1851 11.9461 18.1125 11.9461C15.0257 11.9461 12.5085 14.4 12.5085 17.4305C12.5156 20.468 15.0257 22.9289 18.1125 22.9219Z" fill="white"/>
<path d="M27.2461 6.89062C28.1953 6.89062 28.9687 7.69922 28.9687 8.69062C28.9617 9.68203 28.1812 10.4836 27.232 10.4766C26.2968 10.4695 25.5304 9.66797 25.5304 8.69766C25.5234 7.70625 26.2968 6.89062 27.2461 6.89062Z" fill="white"/>
</svg>
