<svg width="77" height="77" viewBox="0 0 77 77" fill="none" xmlns="http://www.w3.org/2000/svg">
<path d="M72.1874 36.0937C71.686 36.0905 71.198 35.9307 70.7918 35.6366L38.5 12.5847L6.20807 35.6366C5.69001 35.9434 5.07575 36.0448 4.48654 35.9209C3.89733 35.7969 3.376 35.4566 3.02547 34.9671C2.67493 34.4775 2.52066 33.8743 2.59311 33.2766C2.66557 32.6789 2.95948 32.13 3.41682 31.7384L37.1043 7.67594C37.5119 7.38578 37.9997 7.22986 38.5 7.22986C39.0002 7.22986 39.488 7.38578 39.8956 7.67594L73.5831 31.7384C73.9939 32.0358 74.3003 32.4555 74.4584 32.9374C74.6165 33.4193 74.6183 33.9388 74.4635 34.4218C74.3087 34.9048 74.0053 35.3266 73.5966 35.6268C73.1878 35.9271 72.6946 36.0905 72.1874 36.0937Z" fill="white"/>
<path d="M12.0312 21.6562C11.3931 21.6562 10.781 21.4027 10.3298 20.9515C9.87852 20.5002 9.625 19.8882 9.625 19.25V9.625C9.625 8.98682 9.87852 8.37478 10.3298 7.92352C10.781 7.47226 11.3931 7.21875 12.0312 7.21875H21.6562C22.2944 7.21875 22.9065 7.47226 23.3577 7.92352C23.809 8.37478 24.0625 8.98682 24.0625 9.625C24.0625 10.2632 23.809 10.8752 23.3577 11.3265C22.9065 11.7777 22.2944 12.0312 21.6562 12.0312H14.4375V19.25C14.4375 19.8882 14.184 20.5002 13.7327 20.9515C13.2815 21.4027 12.6694 21.6562 12.0312 21.6562Z" fill="white"/>
<path d="M60.1562 69.7812H48.125C47.4868 69.7812 46.8748 69.5277 46.4235 69.0765C45.9723 68.6252 45.7188 68.0132 45.7188 67.375V50.5312H31.2812V67.375C31.2812 68.0132 31.0277 68.6252 30.5765 69.0765C30.1252 69.5277 29.5132 69.7812 28.875 69.7812H16.8438C14.9292 69.7812 13.0931 69.0207 11.7393 67.6669C10.3855 66.3132 9.625 64.477 9.625 62.5625V38.5C9.625 37.8618 9.87852 37.2498 10.3298 36.7985C10.781 36.3473 11.3931 36.0938 12.0312 36.0938C12.6694 36.0938 13.2815 36.3473 13.7327 36.7985C14.184 37.2498 14.4375 37.8618 14.4375 38.5V62.5625C14.4375 63.2007 14.691 63.8127 15.1423 64.264C15.5935 64.7152 16.2056 64.9688 16.8438 64.9688H26.4688V48.125C26.4688 47.4868 26.7223 46.8748 27.1735 46.4235C27.6248 45.9723 28.2368 45.7188 28.875 45.7188H48.125C48.7632 45.7188 49.3752 45.9723 49.8265 46.4235C50.2777 46.8748 50.5312 47.4868 50.5312 48.125V64.9688H60.1562C60.7944 64.9688 61.4065 64.7152 61.8577 64.264C62.309 63.8127 62.5625 63.2007 62.5625 62.5625V38.5C62.5625 37.8618 62.816 37.2498 63.2673 36.7985C63.7185 36.3473 64.3306 36.0938 64.9688 36.0938C65.6069 36.0938 66.219 36.3473 66.6702 36.7985C67.1215 37.2498 67.375 37.8618 67.375 38.5V62.5625C67.375 64.477 66.6145 66.3132 65.2607 67.6669C63.9069 69.0207 62.0708 69.7812 60.1562 69.7812Z" fill="white"/>
</svg>
