<svg width="77" height="77" viewBox="0 0 77 77" fill="none" xmlns="http://www.w3.org/2000/svg">
<g clip-path="url(#clip0_20_14)">
<path d="M55.4994 23.2923L33.1248 48.2015L21.3257 36.8831C20.2769 35.878 18.6162 35.9218 17.6112 36.9706C16.606 38.0194 16.6498 39.6801 17.6986 40.6851L31.4206 53.8826C31.9014 54.3634 32.5569 54.6256 33.256 54.6256C33.2997 54.6256 33.2997 54.6256 33.3435 54.6256C34.0426 54.5819 34.7419 54.2759 35.1789 53.7515L59.3888 26.832C60.3502 25.7395 60.2629 24.0789 59.1702 23.1175C58.1214 22.1124 56.4609 22.1997 55.4994 23.2923Z" fill="white"/>
<path d="M38.5001 0C17.2617 0 0 17.2617 0 38.5001C0 59.7385 17.2617 77.0002 38.5001 77.0002C59.7385 77.0002 77.0002 59.7385 77.0002 38.5001C77.0002 17.2617 59.7385 0 38.5001 0ZM38.5001 71.756C20.1459 71.756 5.24404 56.8541 5.24404 38.4999C5.24404 20.1458 20.1459 5.24404 38.5001 5.24404C56.8542 5.24404 71.7561 20.1459 71.7561 38.5001C71.7561 56.8542 56.8542 71.756 38.5001 71.756Z" fill="white"/>
</g>
<defs>
<clipPath id="clip0_20_14">
<rect width="77" height="77" fill="white"/>
</clipPath>
</defs>
</svg>
