<svg width="25" height="25" viewBox="0 0 25 25" fill="none" xmlns="http://www.w3.org/2000/svg">
<path d="M12.5044 12.9883C13.632 12.9873 14.7244 12.5954 15.5954 11.8793C16.4665 11.1632 17.0624 10.1673 17.2816 9.06121C17.5007 7.9551 17.3296 6.80722 16.7974 5.8131C16.2652 4.81898 15.4048 4.04013 14.3628 3.60922C13.3207 3.17831 12.1615 3.122 11.0826 3.44987C10.0038 3.77775 9.0719 4.46953 8.44583 5.40738C7.81977 6.34523 7.53822 7.47112 7.64914 8.59327C7.76006 9.71542 8.25659 10.7644 9.05416 11.5615C9.50693 12.0149 10.0448 12.3743 10.6369 12.6191C11.229 12.864 11.8636 12.9894 12.5044 12.9883ZM9.83736 5.44726C10.4543 4.83023 11.2662 4.44621 12.1345 4.36065C13.0029 4.27509 13.8741 4.49327 14.5996 4.97802C15.3251 5.46277 15.8601 6.1841 16.1134 7.01909C16.3667 7.85409 16.3227 8.75108 15.9888 9.55723C15.6548 10.3634 15.0517 11.0288 14.2822 11.4401C13.5126 11.8514 12.6243 11.9832 11.7685 11.813C10.9127 11.6427 10.1424 11.181 9.58887 10.5065C9.03534 9.83193 8.73283 8.98634 8.73287 8.11377C8.73225 7.61846 8.82951 7.12792 9.01906 6.67031C9.2086 6.21271 9.48669 5.79707 9.83736 5.44726Z" fill="white"/>
<path d="M12.5044 13.7612C8.37353 13.7612 5.0127 17.1216 5.0127 21.2524C5.0127 21.3252 5.02702 21.3972 5.05484 21.4643C5.08267 21.5315 5.12346 21.5926 5.17487 21.644C5.22629 21.6954 5.28733 21.7362 5.35451 21.764C5.42169 21.7918 5.49369 21.8062 5.56641 21.8062H19.4419C19.5887 21.8062 19.7296 21.7478 19.8334 21.644C19.9373 21.5401 19.9956 21.3993 19.9956 21.2524C19.9956 17.1216 16.6348 13.7612 12.5044 13.7612ZM6.14404 20.6987C6.42529 17.437 9.17139 14.8687 12.5044 14.8687C15.8374 14.8687 18.583 17.437 18.8643 20.6987H6.14404Z" fill="white"/>
</svg>
