<svg width="35" height="35" viewBox="0 0 35 35" fill="none" xmlns="http://www.w3.org/2000/svg">
<path fill-rule="evenodd" clip-rule="evenodd" d="M35 17.5C35 27.165 27.165 35 17.5 35C7.83504 35 0 27.165 0 17.5C0 7.83504 7.83504 0 17.5 0C27.165 0 35 7.83504 35 17.5ZM11.7188 15.8969C9.96574 16.6623 8.16455 17.4488 6.51747 18.356C5.65744 18.9858 6.80049 19.4312 7.87289 19.849C8.04336 19.9154 8.21202 19.9811 8.37062 20.0468C8.50259 20.0874 8.63676 20.1301 8.77275 20.1734C9.96545 20.5534 11.2953 20.9771 12.4532 20.3397C14.3553 19.2471 16.1503 17.9839 17.944 16.7216C18.5316 16.308 19.1191 15.8946 19.7102 15.4873C19.7379 15.4696 19.7691 15.4493 19.8033 15.4272C20.3068 15.1008 21.4393 14.3667 21.0203 15.3782C20.0298 16.4614 18.9688 17.4203 17.9021 18.3845C17.1832 19.0342 16.4616 19.6864 15.7572 20.3806C15.1438 20.879 14.5067 21.8814 15.1936 22.5794C16.7759 23.6871 18.3828 24.7678 19.9888 25.848C20.5114 26.1995 21.034 26.5509 21.5555 26.9033C22.4394 27.6089 23.8208 27.0381 24.0151 25.9354C24.1015 25.4281 24.1883 24.9209 24.2751 24.4136C24.7546 21.6102 25.2342 18.8057 25.6579 15.9932C25.7155 15.552 25.7808 15.1108 25.8461 14.6694C26.0044 13.5997 26.1629 12.5286 26.2125 11.4531C26.0848 10.3798 24.7834 10.6158 24.0592 10.8571C20.3367 12.2736 16.6513 13.7951 12.9806 15.3434C12.5647 15.5276 12.1432 15.7116 11.7188 15.8969Z" fill="white"/>
</svg>
