<svg width="84" height="67" viewBox="0 0 84 67" fill="none" xmlns="http://www.w3.org/2000/svg">
<path d="M26.88 29.775C25.4887 27.9299 22.8506 27.5504 21 28.9375C19.1494 30.3246 18.7687 32.9549 20.16 34.8L25.1606 41.4477C25.7906 42.2852 25.6987 43.4498 24.9637 44.1826L23.2837 45.8576C22.4044 46.7344 20.9737 46.6689 20.1862 45.7137L8.4 31.607V12.1875C8.4 9.87129 6.52312 8 4.2 8C1.87687 8 0 9.87129 0 12.1875V40.7672C0 42.1936 0.485625 43.5807 1.37812 44.693L15.0412 62.2674C15.6975 63.118 16.1437 64.0863 16.4062 65.107C16.6425 66.01 17.4694 66.625 18.4144 66.625H35.7C36.855 66.625 37.8 65.6828 37.8 64.5312V49.875C37.8 46.2502 36.6187 42.7301 34.44 39.825L26.88 29.775V29.775ZM79.8 8C77.4769 8 75.6 9.87129 75.6 12.1875V31.607L63.8137 45.7137C63.0262 46.6559 61.5825 46.7213 60.7162 45.8576L59.0362 44.1826C58.3012 43.4498 58.2094 42.2852 58.8394 41.4477L63.84 34.8C65.2312 32.9549 64.8506 30.3246 63 28.9375C61.1494 27.5504 58.5112 27.9299 57.12 29.775L49.56 39.825C47.3812 42.7301 46.2 46.2502 46.2 49.875V64.5312C46.2 65.6828 47.145 66.625 48.3 66.625H65.5856C66.5175 66.625 67.3575 66.01 67.5937 65.107C67.8562 64.0863 68.3025 63.118 68.9588 62.2674L82.6219 44.693C83.5144 43.5807 84 42.1936 84 40.7672V12.1875C84 9.87129 82.1231 8 79.8 8Z" fill="white"/>
</svg>
