<svg width="47" height="47" viewBox="0 0 47 47" fill="none" xmlns="http://www.w3.org/2000/svg">
<g clip-path="url(#clip0_37_38)">
<path d="M46.7508 34.3097C46.6939 34.1871 46.6409 34.0853 46.5916 34.0038C45.7761 32.5352 44.2178 30.7325 41.9176 28.5953L41.869 28.5464L41.8447 28.5224L41.8201 28.4978H41.7954C40.7515 27.5026 40.0904 26.8335 39.8135 26.4909C39.307 25.8383 39.1935 25.1777 39.4703 24.5084C39.6659 24.0027 40.4006 22.9348 41.6728 21.3031C42.3419 20.4384 42.8718 19.7453 43.2632 19.2232C46.0857 15.4708 47.3094 13.0729 46.934 12.0287L46.7882 11.7847C46.6902 11.6378 46.4374 11.5034 46.03 11.3808C45.6217 11.2585 45.0998 11.2383 44.4634 11.3198L37.4159 11.3685C37.3018 11.328 37.1388 11.3318 36.9264 11.3808C36.7142 11.4298 36.6081 11.4544 36.6081 11.4544L36.4855 11.5157L36.3881 11.5894C36.3065 11.638 36.2168 11.7237 36.1188 11.8461C36.0214 11.968 35.9398 12.1112 35.8747 12.2743C35.1074 14.2483 34.2351 16.0836 33.256 17.7801C32.6523 18.7918 32.098 19.6685 31.5917 20.4108C31.0861 21.1529 30.6619 21.6997 30.3196 22.0501C29.9767 22.401 29.6673 22.682 29.3894 22.8943C29.112 23.1067 28.9002 23.1964 28.7535 23.1636C28.6065 23.1308 28.4681 23.0982 28.3371 23.0656C28.1088 22.9187 27.9252 22.7189 27.7868 22.4661C27.6478 22.2133 27.5542 21.895 27.5053 21.5116C27.4566 21.128 27.4278 20.798 27.4195 20.5206C27.4119 20.2435 27.4154 19.8515 27.432 19.3458C27.4489 18.8399 27.4566 18.4975 27.4566 18.3181C27.4566 17.698 27.4687 17.0251 27.4929 16.2991C27.5176 15.5732 27.5376 14.998 27.5543 14.5742C27.5709 14.15 27.5786 13.7013 27.5786 13.2281C27.5786 12.755 27.5498 12.384 27.4929 12.1147C27.4367 11.8457 27.3504 11.5846 27.2366 11.3315C27.1222 11.0787 26.9547 10.8831 26.735 10.7443C26.5148 10.6056 26.241 10.4955 25.9152 10.4138C25.0505 10.2181 23.9494 10.1122 22.6114 10.0958C19.5771 10.0632 17.6275 10.2591 16.7628 10.6833C16.4202 10.8625 16.1102 11.1074 15.833 11.4172C15.5393 11.7762 15.4983 11.9721 15.7104 12.0044C16.6894 12.151 17.3824 12.5018 17.7903 13.0565L17.9373 13.3504C18.0516 13.5624 18.1658 13.9378 18.2801 14.4761C18.3941 15.0143 18.4678 15.6098 18.5002 16.262C18.5816 17.4532 18.5816 18.4728 18.5002 19.321C18.4185 20.1695 18.3413 20.8301 18.2677 21.3032C18.1941 21.7763 18.084 22.1597 17.9373 22.4532C17.7903 22.7469 17.6925 22.9264 17.6435 22.9915C17.5946 23.0566 17.5538 23.0977 17.5214 23.1138C17.3093 23.1951 17.0888 23.2365 16.8605 23.2365C16.6319 23.2365 16.3548 23.1221 16.0285 22.8936C15.7024 22.6651 15.3639 22.3512 15.0131 21.9515C14.6623 21.5517 14.2667 20.9929 13.826 20.2752C13.3857 19.5574 12.9289 18.7092 12.4558 17.7303L12.0643 17.0205C11.8196 16.5638 11.4854 15.8989 11.0612 15.0263C10.6368 14.1533 10.2616 13.3089 9.93547 12.4932C9.8051 12.1506 9.60925 11.8898 9.34827 11.7103L9.22579 11.6367C9.14436 11.5715 9.01365 11.5024 8.83435 11.4286C8.65478 11.355 8.46742 11.3022 8.27149 11.2697L1.56644 11.3184C0.881275 11.3184 0.416381 11.4736 0.171592 11.7837L0.0736253 11.9303C0.0246846 12.012 0 12.1424 0 12.322C0 12.5015 0.0489407 12.7218 0.146908 12.9826C1.12572 15.283 2.19016 17.5017 3.34022 19.6388C4.49028 21.7759 5.48967 23.4974 6.33777 24.8017C7.18605 26.107 8.0507 27.3389 8.93171 28.4969C9.81273 29.6552 10.3959 30.3976 10.6812 30.7237C10.9669 31.0504 11.1913 31.2947 11.3544 31.4578L11.9663 32.045C12.3578 32.4366 12.9328 32.9056 13.6914 33.452C14.4502 33.9988 15.2902 34.537 16.212 35.0677C17.1339 35.5975 18.2064 36.0298 19.43 36.3641C20.6536 36.6988 21.8444 36.8331 23.0028 36.7683H25.817C26.3878 36.7191 26.8202 36.5396 27.1141 36.2298L27.2114 36.1072C27.2769 36.0098 27.3382 35.8585 27.3948 35.655C27.452 35.4511 27.4805 35.2264 27.4805 34.982C27.4638 34.2807 27.5172 33.6486 27.6392 33.0858C27.7612 32.5232 27.9002 32.099 28.0557 31.8133C28.2111 31.5279 28.3864 31.2871 28.5816 31.0918C28.7772 30.8961 28.9166 30.7776 28.9983 30.7368C29.0796 30.6958 29.1445 30.6679 29.1934 30.6512C29.5849 30.5207 30.0457 30.6471 30.5764 31.0308C31.1067 31.4142 31.6041 31.8876 32.0693 32.4502C32.5343 33.0133 33.093 33.6451 33.7454 34.3464C34.3983 35.048 34.9691 35.5696 35.4583 35.9127L35.9476 36.2063C36.2743 36.4023 36.6985 36.5818 37.2206 36.7449C37.7418 36.9079 38.1985 36.9487 38.5906 36.8672L44.8549 36.7695C45.4745 36.7695 45.9566 36.6669 46.2986 36.4633C46.6413 36.2594 46.8449 36.0347 46.9105 35.7904C46.976 35.5458 46.9795 35.2682 46.9229 34.958C46.8649 34.6485 46.8078 34.432 46.7508 34.3097Z" fill="white"/>
</g>
<defs>
<clipPath id="clip0_37_38">
<rect width="47" height="47" fill="white"/>
</clipPath>
</defs>
</svg>
